<svg xmlns="http://www.w3.org/2000/svg" version="1.1" viewBox="-5.0 -10.0 110.0 135.0">
 <path d="m33.16 74.93c0.75391 1.0586 1.6406 1.7656 2.5898 2.0117 5.9766 1.5664 22.531 1.5625 28.508-0.007812 0.94141-0.24609 1.8281-0.94922 2.582-2.0078-5.5625 0.60938-11.203 0.91406-16.848 0.91406-5.6367 0-11.27-0.30469-16.828-0.91016z"/>
 <path d="m50 71.703c-6.5078 0-12.828-0.32031-18.617-0.92578-2.2227-0.23438-4.3672-0.50781-6.4141-0.82422 0.007812 0.011719 0.019531 0.027344 0.027344 0.039063 1.1797 1.6602 3.0312 2.7227 5.0508 2.9883 0.72266 0.09375 1.4453 0.18359 2.1719 0.26953 11.734 1.3672 23.84 1.3672 35.562-0.003906 0.72656-0.085938 1.4492-0.17578 2.1719-0.26953 2.0195-0.26562 3.8672-1.3281 5.0469-2.9883 0.007812-0.011719 0.015625-0.023437 0.027344-0.035156-2.0469 0.31641-4.1914 0.58984-6.4141 0.82422-5.7891 0.60547-12.105 0.92578-18.609 0.92578z"/>
 <path d="m50 64.551c9.7969 0 19-0.87891 25.914-2.4766 2.8984-0.66797 5.0742-1.3945 6.6562-2.1172-0.82031-1.2539-3.4648-2.8203-8.9648-4.1523-2.0039-0.48438-4.2188-0.89844-6.5938-1.2383l0.45703 0.40234c0.875 0.77344 1.3984 1.8828 1.4375 3.0508 0.035156 1.168-0.41406 2.3086-1.2422 3.1367-0.79297 0.79297-1.8828 1.2422-3.0039 1.2422-0.042968 0-0.089844 0-0.13281-0.003907-1.168-0.035156-2.2773-0.5625-3.0508-1.4375l-6.543-7.4258c-1.6172-0.058594-3.2656-0.085938-4.9336-0.085938-1.5977 0-3.1797 0.027344-4.7344 0.082032l-6.4141 7.25c-0.79687 0.89844-1.9414 1.4375-3.1406 1.4727h-0.13281c-1.1562 0-2.2773-0.46094-3.0938-1.2812-0.85156-0.84766-1.3164-2.0234-1.2812-3.2266 0.035156-1.1953 0.57031-2.332 1.4609-3.1289-2.25 0.33203-4.3555 0.73047-6.2656 1.1914-5.5 1.332-8.1484 2.8945-8.9648 4.1523 1.582 0.71875 3.7617 1.4453 6.6562 2.1172 6.9141 1.5977 16.113 2.4766 25.914 2.4766z"/>
 <path d="m91.855 49.59c-2.625-1.3906-6.2109-2.6055-10.656-3.6016-7.332-1.6445-17.145-2.6484-27.172-2.8789l0.24609 0.23828 5.0352 4.4336c14.992 0.90625 28.371 4.0078 28.371 9.0234 0 1.4961-1.1914 2.8203-3.2578 3.9688v0.027343h-0.046875c-6.3086 3.4727-20.664 5.3086-34.375 5.3086s-28.066-1.8359-34.375-5.3086h-0.046875v-0.027343c-2.0664-1.1484-3.2578-2.4727-3.2578-3.9688 0-4.9805 13.18-8.0703 28.035-9.0039l5.3047-4.6914c-10.082 0.22266-19.492 1.2266-26.863 2.8789-4.4453 0.99609-8.0312 2.2109-10.656 3.6016-4.6641 2.4766-5.6445 5.1602-5.6445 6.9766s0.98047 4.5 5.6445 6.9766c2.625 1.3906 6.2109 2.6016 10.656 3.6016 8.4141 1.8867 19.496 2.9297 31.199 2.9297s22.785-1.0391 31.199-2.9297c4.4492-0.99609 8.0312-2.2109 10.656-3.6016 4.6641-2.4766 5.6445-5.1602 5.6445-6.9766s-0.98047-4.5-5.6445-6.9766z"/>
 <path d="m53.523 51.93-2.5195-2.8633c-0.33203 0-0.66797-0.003906-1-0.003906-0.26172 0-0.52344 0-0.78906 0.003906l-2.5273 2.8594c1.1055-0.027343 2.2148-0.042969 3.3164-0.042969 1.1719 0 2.3477 0.015626 3.5234 0.046876z"/>
 <path d="m83.965 59.238c1.5117-0.89453 2.1484-1.7461 2.1484-2.4297 0-1.4062-2.6797-3.5273-10.203-5.2656-4.1836-0.96875-9.2109-1.6719-14.695-2.0742l3.707 3.2656c9.4062 1.1172 17.129 3.3203 19.039 6.5078z"/>
 <path d="m13.887 56.805c0 0.68359 0.63672 1.5352 2.1484 2.4297 1.8906-3.1523 9.4531-5.3398 18.711-6.4688l3.707-3.2812c-5.3594 0.41016-10.266 1.1016-14.367 2.0508-7.5195 1.7383-10.203 3.8594-10.203 5.2656z"/>
 <path d="m54.453 40.953c1.1445-1.293 2.8516-1.9531 4.5625-1.7305 2.7656 0.36328 6.1758-0.92188 8.8711-3.6172 3.9219-3.9219 4.8555-9.3516 2.082-12.125-2.7734-2.7734-8.1992-1.8398-12.125 2.0859-2.6953 2.6953-3.9805 6.1055-3.6172 8.8711 0.22266 1.7109-0.4375 3.418-1.7305 4.5625l-1.3672 1.2109 2.1133 2.1133 1.2109-1.3672z"/>
 <path d="m33.637 55.688c-1.2617 1.1172-1.3203 3.0664-0.12891 4.2578 1.1914 1.1914 3.1406 1.1328 4.2578-0.12891l11.309-12.828-2.543-2.8867z"/>
 <path d="m36.172 38.227c1.5898 1.8203 3.9805 2.7227 6.375 2.4102 1.6562-0.21875 3.3164 0.40625 4.4219 1.6602l15.594 17.703c1.0664 1.2109 2.9336 1.2695 4.0703 0.12891 1.1406-1.1406 1.082-3.0078-0.12891-4.0703l-17.703-15.594c-1.2539-1.1055-1.8789-2.7617-1.6602-4.4219 0.31641-2.3945-0.58984-4.7852-2.4062-6.375l-8.5469-7.4648c-0.44141-0.38672-1.1055-0.36719-1.5195 0.046875-0.4375 0.4375-0.43359 1.1484 0.007812 1.5781l8.1445 7.9453c0.36328 0.35547 0.36719 0.9375 0.007813 1.2969-0.34766 0.34766-0.91406 0.35547-1.2734 0.015626l-8.2891-7.9023c-0.4375-0.41797-1.125-0.40625-1.5508 0.019531l-0.011719 0.011719c-0.42578 0.42578-0.43359 1.1133-0.019531 1.5508l7.9023 8.2891c0.33984 0.35937 0.33594 0.92187-0.015626 1.2734-0.35937 0.35938-0.94141 0.35547-1.2969-0.007813l-7.9453-8.1445c-0.43359-0.44141-1.1406-0.44531-1.5781-0.007812-0.41406 0.41406-0.43359 1.082-0.046875 1.5195l7.4609 8.543z"/>
<text x="0.0" y="117.5" font-size="5.0" font-weight="bold" font-family="Arbeit Regular, Helvetica, Arial-Unicode, Arial, Sans-serif" fill="#000000">Created by Arif Arisandi</text><text x="0.0" y="122.5" font-size="5.0" font-weight="bold" font-family="Arbeit Regular, Helvetica, Arial-Unicode, Arial, Sans-serif" fill="#000000">from Noun Project</text></svg>